# Blender v2.77 (sub 0) OBJ File: '6365.blend'
# www.blender.org
mtllib 6365_pillar.mtl
o Cube.002_Cube
v -1.694608 3.421146 11.213717
v -1.694608 3.421146 9.035259
v -1.694608 1.421146 11.213717
v -1.694608 1.421146 9.035259
v 0.305392 3.421146 11.213717
v 0.305392 3.421146 9.035259
v 0.305392 1.421146 11.213717
v 0.305392 1.421146 9.035259
v -1.531059 3.257597 9.035259
v -1.531059 1.584695 9.035259
v 0.141844 1.584695 9.035259
v 0.141844 3.257597 9.035259
v -1.531059 3.257597 8.886712
v -1.531059 1.584695 8.886712
v 0.141844 1.584695 8.886712
v 0.141844 3.257597 8.886712
v -1.447823 3.174361 8.780078
v -1.447823 1.667931 8.780078
v 0.058607 1.667931 8.780078
v 0.058607 3.174361 8.780078
v -1.495903 3.222442 8.636078
v -1.495903 1.619850 8.636078
v 0.106688 1.619850 8.636078
v 0.106688 3.222442 8.636078
v -1.407972 3.134511 -0.630065
v -1.407972 1.707782 -0.630065
v 0.018756 1.707782 -0.630065
v 0.018756 3.134511 -0.630065
vn -1.0000 0.0000 0.0000
vn 0.0000 -1.0000 0.0000
vn 1.0000 0.0000 0.0000
vn 0.0000 1.0000 0.0000
vn 0.0000 0.0000 1.0000
vn 0.0000 0.0000 -1.0000
vn 0.0000 0.7883 -0.6153
vn 0.0000 -0.9485 0.3167
vn 0.0000 -0.7883 -0.6153
vn 0.7883 0.0000 -0.6153
vn -0.7883 0.0000 -0.6153
vn 1.0000 0.0000 -0.0095
vn 0.9485 0.0000 0.3167
vn -0.9485 0.0000 0.3167
vn 0.0000 0.9485 0.3167
vn -1.0000 0.0000 -0.0095
vn 0.0000 1.0000 -0.0095
vn 0.0000 -1.0000 -0.0095
usemtl None
s off
f 2//1 4//1 3//1 1//1
f 4//2 8//2 7//2 3//2
f 8//3 6//3 5//3 7//3
f 6//4 2//4 1//4 5//4
f 1//5 3//5 7//5 5//5
f 6//6 8//6 11//6 12//6
f 12//3 11//3 15//3 16//3
f 4//6 2//6 9//6 10//6
f 2//6 6//6 12//6 9//6
f 8//6 4//6 10//6 11//6
f 13//7 16//7 20//7 17//7
f 10//1 9//1 13//1 14//1
f 9//4 12//4 16//4 13//4
f 11//2 10//2 14//2 15//2
f 19//8 18//8 22//8 23//8
f 15//9 14//9 18//9 19//9
f 16//10 15//10 19//10 20//10
f 14//11 13//11 17//11 18//11
f 24//12 23//12 27//12 28//12
f 20//13 19//13 23//13 24//13
f 18//14 17//14 21//14 22//14
f 17//15 20//15 24//15 21//15
f 22//16 21//16 25//16 26//16
f 21//17 24//17 28//17 25//17
f 23//18 22//18 26//18 27//18
f 25//6 28//6 27//6 26//6
