# Blender v2.77 (sub 0) OBJ File: ''
# www.blender.org
mtllib 6365_partial_arch.mtl
o Cube.001_Cube.002
v -4.502213 0.422219 1.421635
v -4.502213 1.000000 1.421635
v -4.502213 1.000000 0.240661
v -4.502213 0.422219 0.240661
v -2.502213 0.422219 1.421636
v -2.502213 1.000000 1.421636
v -4.427401 0.532963 1.421635
v -4.328590 0.645217 1.421635
v -4.216335 0.744027 1.421635
v -4.092031 0.828000 1.421635
v -3.957073 0.895739 1.421636
v -3.812854 0.945850 1.421636
v -3.660769 0.976939 1.421636
v -3.502213 0.987613 1.421636
v -3.343656 0.976939 1.421636
v -3.191571 0.945851 1.421636
v -3.047352 0.895739 1.421636
v -2.912393 0.828000 1.421636
v -2.788090 0.744027 1.421636
v -2.675835 0.645218 1.421636
v -2.577025 0.532963 1.421636
v -2.502213 1.000000 0.240661
v -2.502213 0.422219 0.240661
v -2.577025 0.532963 0.240661
v -2.675835 0.645218 0.240661
v -2.788090 0.744028 0.240661
v -2.912393 0.828000 0.240661
v -3.047352 0.895739 0.240661
v -3.191571 0.945851 0.240661
v -3.343656 0.976940 0.240661
v -3.502213 0.987613 0.240661
v -3.660769 0.976940 0.240661
v -3.812854 0.945850 0.240661
v -3.957073 0.895739 0.240661
v -4.092031 0.828000 0.240661
v -4.216335 0.744028 0.240661
v -4.328590 0.645217 0.240661
v -4.427401 0.532963 0.240661
vn -1.0000 0.0000 0.0000
vn -0.0000 0.0000 1.0000
vn -0.0000 1.0000 0.0000
vn -0.0000 0.0000 -1.0000
vn 1.0000 -0.0000 0.0000
vn 0.4486 -0.8937 -0.0000
vn 0.5598 -0.8286 -0.0000
vn 0.3282 -0.9446 -0.0000
vn 0.6607 -0.7506 -0.0000
vn 0.2003 -0.9797 -0.0000
vn 0.7506 -0.6607 -0.0000
vn 0.0672 -0.9977 -0.0000
vn 0.8286 -0.5598 -0.0000
vn -0.0672 -0.9977 -0.0000
vn -0.2003 -0.9797 -0.0000
vn -0.3282 -0.9446 -0.0000
vn -0.4486 -0.8937 -0.0000
vn -0.5598 -0.8286 -0.0000
vn -0.6607 -0.7506 -0.0000
vn -0.7506 -0.6607 -0.0000
vn -0.8286 -0.5598 -0.0000
usemtl None
s 1
f 1//1 2//1 3//1 4//1
f 5//2 6//2 2//2 1//2 7//2 8//2 9//2 10//2 11//2 12//2 13//2 14//2 15//2 16//2 17//2 18//2 19//2 20//2 21//2
f 2//3 6//3 22//3 3//3
f 4//4 3//4 22//4 23//4 24//4 25//4 26//4 27//4 28//4 29//4 30//4 31//4 32//4 33//4 34//4 35//4 36//4 37//4 38//4
f 6//5 5//5 23//5 22//5
f 35//6 34//6 11//6 10//6
f 36//7 35//7 10//7 9//7
f 34//8 33//8 12//8 11//8
f 37//9 36//9 9//9 8//9
f 33//10 32//10 13//10 12//10
f 38//11 37//11 8//11 7//11
f 32//12 31//12 14//12 13//12
f 7//13 1//13 4//13 38//13
f 31//14 30//14 15//14 14//14
f 30//15 29//15 16//15 15//15
f 29//16 28//16 17//16 16//16
f 28//17 27//17 18//17 17//17
f 27//18 26//18 19//18 18//18
f 26//19 25//19 20//19 19//19
f 25//20 24//20 21//20 20//20
f 24//21 23//21 5//21 21//21
